<svg xmlns="http://www.w3.org/2000/svg" xmlns:xlink="http://www.w3.org/1999/xlink" width="1000" zoomAndPan="magnify" viewBox="0 0 750 187.499995" height="250" preserveAspectRatio="xMidYMid meet" version="1.0"><defs><g/></defs><g fill="#000000" fill-opacity="1"><g transform="translate(35.227538, 136.84489)"><g><path d="M 60.90625 -59.96875 C 60.53125 -59.445312 60.148438 -59.039062 59.765625 -58.75 C 59.378906 -58.457031 58.847656 -58.3125 58.171875 -58.3125 C 57.453125 -58.3125 56.660156 -58.613281 55.796875 -59.21875 C 54.929688 -59.820312 53.863281 -60.484375 52.59375 -61.203125 C 51.320312 -61.921875 49.757812 -62.578125 47.90625 -63.171875 C 46.0625 -63.773438 43.796875 -64.078125 41.109375 -64.078125 C 37.515625 -64.078125 34.347656 -63.441406 31.609375 -62.171875 C 28.867188 -60.898438 26.570312 -59.0625 24.71875 -56.65625 C 22.875 -54.257812 21.484375 -51.359375 20.546875 -47.953125 C 19.617188 -44.546875 19.15625 -40.726562 19.15625 -36.5 C 19.15625 -32.082031 19.65625 -28.15625 20.65625 -24.71875 C 21.664062 -21.289062 23.09375 -18.410156 24.9375 -16.078125 C 26.789062 -13.753906 29.023438 -11.976562 31.640625 -10.75 C 34.253906 -9.53125 37.195312 -8.921875 40.46875 -8.921875 C 43.582031 -8.921875 46.144531 -9.289062 48.15625 -10.03125 C 50.175781 -10.78125 51.847656 -11.609375 53.171875 -12.515625 C 54.492188 -13.429688 55.597656 -14.257812 56.484375 -15 C 57.367188 -15.75 58.242188 -16.125 59.109375 -16.125 C 60.171875 -16.125 60.988281 -15.71875 61.5625 -14.90625 L 65.15625 -10.21875 C 63.570312 -8.25 61.769531 -6.566406 59.75 -5.171875 C 57.738281 -3.785156 55.566406 -2.625 53.234375 -1.6875 C 50.910156 -0.75 48.476562 -0.0664062 45.9375 0.359375 C 43.394531 0.796875 40.800781 1.015625 38.15625 1.015625 C 33.59375 1.015625 29.351562 0.175781 25.4375 -1.5 C 21.53125 -3.1875 18.132812 -5.625 15.25 -8.8125 C 12.375 -12.007812 10.117188 -15.9375 8.484375 -20.59375 C 6.859375 -25.25 6.046875 -30.550781 6.046875 -36.5 C 6.046875 -41.925781 6.800781 -46.941406 8.3125 -51.546875 C 9.820312 -56.160156 12.03125 -60.132812 14.9375 -63.46875 C 17.84375 -66.800781 21.421875 -69.40625 25.671875 -71.28125 C 29.921875 -73.15625 34.800781 -74.09375 40.3125 -74.09375 C 45.457031 -74.09375 49.984375 -73.265625 53.890625 -71.609375 C 57.804688 -69.953125 61.273438 -67.609375 64.296875 -64.578125 Z M 60.90625 -59.96875 "/></g></g></g><g fill="#000000" fill-opacity="1"><g transform="translate(103.987475, 136.84489)"><g><path d="M 49.6875 -32.828125 C 43.78125 -32.640625 38.75 -32.171875 34.59375 -31.421875 C 30.445312 -30.679688 27.0625 -29.710938 24.4375 -28.515625 C 21.820312 -27.316406 19.925781 -25.898438 18.75 -24.265625 C 17.570312 -22.628906 16.984375 -20.804688 16.984375 -18.796875 C 16.984375 -16.867188 17.296875 -15.207031 17.921875 -13.8125 C 18.546875 -12.425781 19.398438 -11.289062 20.484375 -10.40625 C 21.566406 -9.519531 22.835938 -8.867188 24.296875 -8.453125 C 25.765625 -8.046875 27.335938 -7.84375 29.015625 -7.84375 C 31.273438 -7.84375 33.335938 -8.070312 35.203125 -8.53125 C 37.078125 -8.988281 38.84375 -9.648438 40.5 -10.515625 C 42.15625 -11.378906 43.738281 -12.410156 45.25 -13.609375 C 46.757812 -14.804688 48.238281 -16.175781 49.6875 -17.71875 Z M 8.28125 -62.640625 C 12.3125 -66.523438 16.65625 -69.425781 21.3125 -71.34375 C 25.96875 -73.269531 31.128906 -74.234375 36.796875 -74.234375 C 40.867188 -74.234375 44.488281 -73.5625 47.65625 -72.21875 C 50.832031 -70.875 53.5 -69 55.65625 -66.59375 C 57.8125 -64.195312 59.441406 -61.296875 60.546875 -57.890625 C 61.648438 -54.484375 62.203125 -50.738281 62.203125 -46.65625 L 62.203125 0 L 56.515625 0 C 55.265625 0 54.300781 -0.203125 53.625 -0.609375 C 52.957031 -1.015625 52.4375 -1.820312 52.0625 -3.03125 L 50.609375 -9.9375 C 48.691406 -8.15625 46.820312 -6.582031 45 -5.21875 C 43.175781 -3.851562 41.253906 -2.703125 39.234375 -1.765625 C 37.222656 -0.828125 35.078125 -0.109375 32.796875 0.390625 C 30.515625 0.898438 27.984375 1.15625 25.203125 1.15625 C 22.367188 1.15625 19.703125 0.757812 17.203125 -0.03125 C 14.710938 -0.820312 12.539062 -2.007812 10.6875 -3.59375 C 8.84375 -5.175781 7.378906 -7.179688 6.296875 -9.609375 C 5.222656 -12.035156 4.6875 -14.90625 4.6875 -18.21875 C 4.6875 -21.09375 5.476562 -23.863281 7.0625 -26.53125 C 8.644531 -29.195312 11.210938 -31.5625 14.765625 -33.625 C 18.316406 -35.6875 22.945312 -37.378906 28.65625 -38.703125 C 34.363281 -40.023438 41.375 -40.78125 49.6875 -40.96875 L 49.6875 -46.65625 C 49.6875 -52.320312 48.460938 -56.601562 46.015625 -59.5 C 43.566406 -62.40625 39.988281 -63.859375 35.28125 -63.859375 C 32.113281 -63.859375 29.460938 -63.460938 27.328125 -62.671875 C 25.191406 -61.878906 23.34375 -60.988281 21.78125 -60 C 20.21875 -59.019531 18.875 -58.132812 17.75 -57.34375 C 16.625 -56.550781 15.507812 -56.15625 14.40625 -56.15625 C 13.539062 -56.15625 12.796875 -56.382812 12.171875 -56.84375 C 11.546875 -57.300781 11.015625 -57.863281 10.578125 -58.53125 Z M 8.28125 -62.640625 "/></g></g></g><g fill="#000000" fill-opacity="1"><g transform="translate(175.555413, 136.84489)"><g><path d="M 22.3125 -58.3125 C 24.625 -63.3125 27.457031 -67.210938 30.8125 -70.015625 C 34.175781 -72.828125 38.28125 -74.234375 43.125 -74.234375 C 44.664062 -74.234375 46.144531 -74.0625 47.5625 -73.71875 C 48.976562 -73.382812 50.238281 -72.859375 51.34375 -72.140625 L 50.40625 -62.5625 C 50.113281 -61.363281 49.390625 -60.765625 48.234375 -60.765625 C 47.566406 -60.765625 46.582031 -60.90625 45.28125 -61.1875 C 43.988281 -61.476562 42.523438 -61.625 40.890625 -61.625 C 38.585938 -61.625 36.535156 -61.285156 34.734375 -60.609375 C 32.941406 -59.941406 31.335938 -58.945312 29.921875 -57.625 C 28.503906 -56.3125 27.226562 -54.679688 26.09375 -52.734375 C 24.96875 -50.796875 23.953125 -48.578125 23.046875 -46.078125 L 23.046875 0 L 10.15625 0 L 10.15625 -72.9375 L 17.5 -72.9375 C 18.882812 -72.9375 19.84375 -72.671875 20.375 -72.140625 C 20.90625 -71.617188 21.265625 -70.707031 21.453125 -69.40625 Z M 22.3125 -58.3125 "/></g></g></g><g fill="#000000" fill-opacity="1"><g transform="translate(227.971357, 136.84489)"><g><path d="M 58.96875 -44.421875 C 58.96875 -47.398438 58.546875 -50.125 57.703125 -52.59375 C 56.867188 -55.0625 55.644531 -57.195312 54.03125 -59 C 52.425781 -60.800781 50.472656 -62.191406 48.171875 -63.171875 C 45.867188 -64.160156 43.25 -64.65625 40.3125 -64.65625 C 34.175781 -64.65625 29.316406 -62.863281 25.734375 -59.28125 C 22.160156 -55.707031 19.941406 -50.753906 19.078125 -44.421875 Z M 69.34375 -10.21875 C 67.75 -8.300781 65.847656 -6.632812 63.640625 -5.21875 C 61.441406 -3.800781 59.082031 -2.632812 56.5625 -1.71875 C 54.039062 -0.8125 51.4375 -0.128906 48.75 0.328125 C 46.0625 0.785156 43.394531 1.015625 40.75 1.015625 C 35.707031 1.015625 31.0625 0.160156 26.8125 -1.546875 C 22.570312 -3.253906 18.898438 -5.75 15.796875 -9.03125 C 12.703125 -12.320312 10.289062 -16.390625 8.5625 -21.234375 C 6.832031 -26.085938 5.96875 -31.65625 5.96875 -37.9375 C 5.96875 -43.03125 6.75 -47.785156 8.3125 -52.203125 C 9.875 -56.617188 12.117188 -60.445312 15.046875 -63.6875 C 17.972656 -66.925781 21.546875 -69.46875 25.765625 -71.3125 C 29.992188 -73.164062 34.75 -74.09375 40.03125 -74.09375 C 44.394531 -74.09375 48.4375 -73.359375 52.15625 -71.890625 C 55.882812 -70.429688 59.101562 -68.320312 61.8125 -65.5625 C 64.519531 -62.800781 66.640625 -59.390625 68.171875 -55.328125 C 69.710938 -51.273438 70.484375 -46.65625 70.484375 -41.46875 C 70.484375 -39.457031 70.265625 -38.113281 69.828125 -37.4375 C 69.398438 -36.769531 68.585938 -36.4375 67.390625 -36.4375 L 18.640625 -36.4375 C 18.785156 -31.820312 19.421875 -27.8125 20.546875 -24.40625 C 21.679688 -21 23.253906 -18.15625 25.265625 -15.875 C 27.285156 -13.59375 29.6875 -11.890625 32.46875 -10.765625 C 35.25 -9.640625 38.367188 -9.078125 41.828125 -9.078125 C 45.046875 -9.078125 47.816406 -9.445312 50.140625 -10.1875 C 52.472656 -10.925781 54.476562 -11.726562 56.15625 -12.59375 C 57.84375 -13.457031 59.25 -14.257812 60.375 -15 C 61.5 -15.75 62.46875 -16.125 63.28125 -16.125 C 64.34375 -16.125 65.160156 -15.71875 65.734375 -14.90625 Z M 69.34375 -10.21875 "/></g></g></g><g fill="#000000" fill-opacity="1"><g transform="translate(304.003289, 136.84489)"><g><path d="M 58.96875 -44.421875 C 58.96875 -47.398438 58.546875 -50.125 57.703125 -52.59375 C 56.867188 -55.0625 55.644531 -57.195312 54.03125 -59 C 52.425781 -60.800781 50.472656 -62.191406 48.171875 -63.171875 C 45.867188 -64.160156 43.25 -64.65625 40.3125 -64.65625 C 34.175781 -64.65625 29.316406 -62.863281 25.734375 -59.28125 C 22.160156 -55.707031 19.941406 -50.753906 19.078125 -44.421875 Z M 69.34375 -10.21875 C 67.75 -8.300781 65.847656 -6.632812 63.640625 -5.21875 C 61.441406 -3.800781 59.082031 -2.632812 56.5625 -1.71875 C 54.039062 -0.8125 51.4375 -0.128906 48.75 0.328125 C 46.0625 0.785156 43.394531 1.015625 40.75 1.015625 C 35.707031 1.015625 31.0625 0.160156 26.8125 -1.546875 C 22.570312 -3.253906 18.898438 -5.75 15.796875 -9.03125 C 12.703125 -12.320312 10.289062 -16.390625 8.5625 -21.234375 C 6.832031 -26.085938 5.96875 -31.65625 5.96875 -37.9375 C 5.96875 -43.03125 6.75 -47.785156 8.3125 -52.203125 C 9.875 -56.617188 12.117188 -60.445312 15.046875 -63.6875 C 17.972656 -66.925781 21.546875 -69.46875 25.765625 -71.3125 C 29.992188 -73.164062 34.75 -74.09375 40.03125 -74.09375 C 44.394531 -74.09375 48.4375 -73.359375 52.15625 -71.890625 C 55.882812 -70.429688 59.101562 -68.320312 61.8125 -65.5625 C 64.519531 -62.800781 66.640625 -59.390625 68.171875 -55.328125 C 69.710938 -51.273438 70.484375 -46.65625 70.484375 -41.46875 C 70.484375 -39.457031 70.265625 -38.113281 69.828125 -37.4375 C 69.398438 -36.769531 68.585938 -36.4375 67.390625 -36.4375 L 18.640625 -36.4375 C 18.785156 -31.820312 19.421875 -27.8125 20.546875 -24.40625 C 21.679688 -21 23.253906 -18.15625 25.265625 -15.875 C 27.285156 -13.59375 29.6875 -11.890625 32.46875 -10.765625 C 35.25 -9.640625 38.367188 -9.078125 41.828125 -9.078125 C 45.046875 -9.078125 47.816406 -9.445312 50.140625 -10.1875 C 52.472656 -10.925781 54.476562 -11.726562 56.15625 -12.59375 C 57.84375 -13.457031 59.25 -14.257812 60.375 -15 C 61.5 -15.75 62.46875 -16.125 63.28125 -16.125 C 64.34375 -16.125 65.160156 -15.71875 65.734375 -14.90625 Z M 69.34375 -10.21875 "/></g></g></g><g fill="#000000" fill-opacity="1"><g transform="translate(380.035221, 136.84489)"><g><path d="M 22.3125 -58.3125 C 24.625 -63.3125 27.457031 -67.210938 30.8125 -70.015625 C 34.175781 -72.828125 38.28125 -74.234375 43.125 -74.234375 C 44.664062 -74.234375 46.144531 -74.0625 47.5625 -73.71875 C 48.976562 -73.382812 50.238281 -72.859375 51.34375 -72.140625 L 50.40625 -62.5625 C 50.113281 -61.363281 49.390625 -60.765625 48.234375 -60.765625 C 47.566406 -60.765625 46.582031 -60.90625 45.28125 -61.1875 C 43.988281 -61.476562 42.523438 -61.625 40.890625 -61.625 C 38.585938 -61.625 36.535156 -61.285156 34.734375 -60.609375 C 32.941406 -59.941406 31.335938 -58.945312 29.921875 -57.625 C 28.503906 -56.3125 27.226562 -54.679688 26.09375 -52.734375 C 24.96875 -50.796875 23.953125 -48.578125 23.046875 -46.078125 L 23.046875 0 L 10.15625 0 L 10.15625 -72.9375 L 17.5 -72.9375 C 18.882812 -72.9375 19.84375 -72.671875 20.375 -72.140625 C 20.90625 -71.617188 21.265625 -70.707031 21.453125 -69.40625 Z M 22.3125 -58.3125 "/></g></g></g><g fill="#5271ff" fill-opacity="1"><g transform="translate(432.452471, 136.84489)"><g><path d="M 14.90625 0 L 14.90625 -61.984375 L 6.84375 -62.921875 C 5.832031 -63.160156 5.003906 -63.53125 4.359375 -64.03125 C 3.710938 -64.539062 3.390625 -65.273438 3.390625 -66.234375 L 3.390625 -71.5 L 14.90625 -71.5 L 14.90625 -78.546875 C 14.90625 -82.722656 15.492188 -86.429688 16.671875 -89.671875 C 17.847656 -92.910156 19.523438 -95.644531 21.703125 -97.875 C 23.890625 -100.113281 26.519531 -101.804688 29.59375 -102.953125 C 32.664062 -104.109375 36.117188 -104.6875 39.953125 -104.6875 C 43.222656 -104.6875 46.222656 -104.207031 48.953125 -103.25 L 48.671875 -96.84375 C 48.578125 -95.6875 47.941406 -95.0625 46.765625 -94.96875 C 45.585938 -94.875 44.015625 -94.828125 42.046875 -94.828125 C 39.835938 -94.828125 37.832031 -94.535156 36.03125 -93.953125 C 34.238281 -93.378906 32.691406 -92.441406 31.390625 -91.140625 C 30.097656 -89.847656 29.101562 -88.144531 28.40625 -86.03125 C 27.707031 -83.925781 27.359375 -81.3125 27.359375 -78.1875 L 27.359375 -71.5 L 48.390625 -71.5 L 48.390625 -62.203125 L 27.796875 -62.203125 L 27.796875 0 Z M 14.90625 0 "/></g></g></g><g fill="#5271ff" fill-opacity="1"><g transform="translate(482.924427, 136.84489)"><g><path d="M 40.890625 -74.09375 C 46.222656 -74.09375 51.023438 -73.203125 55.296875 -71.421875 C 59.566406 -69.648438 63.210938 -67.128906 66.234375 -63.859375 C 69.265625 -60.597656 71.582031 -56.648438 73.1875 -52.015625 C 74.789062 -47.390625 75.59375 -42.21875 75.59375 -36.5 C 75.59375 -30.738281 74.789062 -25.554688 73.1875 -20.953125 C 71.582031 -16.347656 69.265625 -12.410156 66.234375 -9.140625 C 63.210938 -5.878906 59.566406 -3.367188 55.296875 -1.609375 C 51.023438 0.140625 46.222656 1.015625 40.890625 1.015625 C 35.515625 1.015625 30.675781 0.140625 26.375 -1.609375 C 22.082031 -3.367188 18.425781 -5.878906 15.40625 -9.140625 C 12.382812 -12.410156 10.066406 -16.347656 8.453125 -20.953125 C 6.847656 -25.554688 6.046875 -30.738281 6.046875 -36.5 C 6.046875 -42.21875 6.847656 -47.390625 8.453125 -52.015625 C 10.066406 -56.648438 12.382812 -60.597656 15.40625 -63.859375 C 18.425781 -67.128906 22.082031 -69.648438 26.375 -71.421875 C 30.675781 -73.203125 35.515625 -74.09375 40.890625 -74.09375 Z M 40.890625 -9 C 48.097656 -9 53.476562 -11.410156 57.03125 -16.234375 C 60.582031 -21.054688 62.359375 -27.789062 62.359375 -36.4375 C 62.359375 -45.125 60.582031 -51.890625 57.03125 -56.734375 C 53.476562 -61.585938 48.097656 -64.015625 40.890625 -64.015625 C 37.242188 -64.015625 34.0625 -63.390625 31.34375 -62.140625 C 28.632812 -60.890625 26.378906 -59.085938 24.578125 -56.734375 C 22.785156 -54.378906 21.441406 -51.484375 20.546875 -48.046875 C 19.660156 -44.617188 19.21875 -40.75 19.21875 -36.4375 C 19.21875 -27.789062 21.003906 -21.054688 24.578125 -16.234375 C 28.160156 -11.410156 33.597656 -9 40.890625 -9 Z M 40.890625 -9 "/></g></g></g><g fill="#5271ff" fill-opacity="1"><g transform="translate(564.572352, 136.84489)"><g><path d="M 23.40625 -106.0625 L 23.40625 0 L 10.578125 0 L 10.578125 -106.0625 Z M 23.40625 -106.0625 "/></g></g></g><g fill="#5271ff" fill-opacity="1"><g transform="translate(598.556321, 136.84489)"><g><path d="M 23.6875 -72.9375 L 23.6875 0 L 10.875 0 L 10.875 -72.9375 Z M 26.421875 -95.828125 C 26.421875 -94.578125 26.164062 -93.410156 25.65625 -92.328125 C 25.15625 -91.253906 24.484375 -90.296875 23.640625 -89.453125 C 22.804688 -88.617188 21.828125 -87.960938 20.703125 -87.484375 C 19.578125 -87.003906 18.390625 -86.765625 17.140625 -86.765625 C 15.890625 -86.765625 14.722656 -87.003906 13.640625 -87.484375 C 12.566406 -87.960938 11.617188 -88.617188 10.796875 -89.453125 C 9.984375 -90.296875 9.335938 -91.253906 8.859375 -92.328125 C 8.378906 -93.410156 8.140625 -94.578125 8.140625 -95.828125 C 8.140625 -97.078125 8.378906 -98.265625 8.859375 -99.390625 C 9.335938 -100.523438 9.984375 -101.507812 10.796875 -102.34375 C 11.617188 -103.1875 12.566406 -103.847656 13.640625 -104.328125 C 14.722656 -104.804688 15.890625 -105.046875 17.140625 -105.046875 C 18.390625 -105.046875 19.578125 -104.804688 20.703125 -104.328125 C 21.828125 -103.847656 22.804688 -103.1875 23.640625 -102.34375 C 24.484375 -101.507812 25.15625 -100.523438 25.65625 -99.390625 C 26.164062 -98.265625 26.421875 -97.078125 26.421875 -95.828125 Z M 26.421875 -95.828125 "/></g></g></g><g fill="#5271ff" fill-opacity="1"><g transform="translate(633.11629, 136.84489)"><g><path d="M 40.890625 -74.09375 C 46.222656 -74.09375 51.023438 -73.203125 55.296875 -71.421875 C 59.566406 -69.648438 63.210938 -67.128906 66.234375 -63.859375 C 69.265625 -60.597656 71.582031 -56.648438 73.1875 -52.015625 C 74.789062 -47.390625 75.59375 -42.21875 75.59375 -36.5 C 75.59375 -30.738281 74.789062 -25.554688 73.1875 -20.953125 C 71.582031 -16.347656 69.265625 -12.410156 66.234375 -9.140625 C 63.210938 -5.878906 59.566406 -3.367188 55.296875 -1.609375 C 51.023438 0.140625 46.222656 1.015625 40.890625 1.015625 C 35.515625 1.015625 30.675781 0.140625 26.375 -1.609375 C 22.082031 -3.367188 18.425781 -5.878906 15.40625 -9.140625 C 12.382812 -12.410156 10.066406 -16.347656 8.453125 -20.953125 C 6.847656 -25.554688 6.046875 -30.738281 6.046875 -36.5 C 6.046875 -42.21875 6.847656 -47.390625 8.453125 -52.015625 C 10.066406 -56.648438 12.382812 -60.597656 15.40625 -63.859375 C 18.425781 -67.128906 22.082031 -69.648438 26.375 -71.421875 C 30.675781 -73.203125 35.515625 -74.09375 40.890625 -74.09375 Z M 40.890625 -9 C 48.097656 -9 53.476562 -11.410156 57.03125 -16.234375 C 60.582031 -21.054688 62.359375 -27.789062 62.359375 -36.4375 C 62.359375 -45.125 60.582031 -51.890625 57.03125 -56.734375 C 53.476562 -61.585938 48.097656 -64.015625 40.890625 -64.015625 C 37.242188 -64.015625 34.0625 -63.390625 31.34375 -62.140625 C 28.632812 -60.890625 26.378906 -59.085938 24.578125 -56.734375 C 22.785156 -54.378906 21.441406 -51.484375 20.546875 -48.046875 C 19.660156 -44.617188 19.21875 -40.75 19.21875 -36.4375 C 19.21875 -27.789062 21.003906 -21.054688 24.578125 -16.234375 C 28.160156 -11.410156 33.597656 -9 40.890625 -9 Z M 40.890625 -9 "/></g></g></g></svg>