<svg xmlns="http://www.w3.org/2000/svg" xmlns:xlink="http://www.w3.org/1999/xlink" width="1000" zoomAndPan="magnify" viewBox="0 0 750 187.499995" height="250" preserveAspectRatio="xMidYMid meet" version="1.0"><defs><g/></defs><g fill="#000000" fill-opacity="1"><g transform="translate(14.454317, 148.825301)"><g><path d="M 74.515625 -73.375 C 74.046875 -72.726562 73.578125 -72.226562 73.109375 -71.875 C 72.640625 -71.519531 71.992188 -71.34375 71.171875 -71.34375 C 70.296875 -71.34375 69.328125 -71.707031 68.265625 -72.4375 C 67.210938 -73.175781 65.90625 -73.984375 64.34375 -74.859375 C 62.789062 -75.742188 60.882812 -76.550781 58.625 -77.28125 C 56.363281 -78.019531 53.585938 -78.390625 50.296875 -78.390625 C 45.890625 -78.390625 42.015625 -77.613281 38.671875 -76.0625 C 35.328125 -74.507812 32.519531 -72.265625 30.25 -69.328125 C 27.988281 -66.390625 26.285156 -62.832031 25.140625 -58.65625 C 24.003906 -54.488281 23.4375 -49.820312 23.4375 -44.65625 C 23.4375 -39.257812 24.050781 -34.457031 25.28125 -30.25 C 26.507812 -26.050781 28.253906 -22.53125 30.515625 -19.6875 C 32.773438 -16.84375 35.503906 -14.671875 38.703125 -13.171875 C 41.910156 -11.671875 45.507812 -10.921875 49.5 -10.921875 C 53.320312 -10.921875 56.460938 -11.375 58.921875 -12.28125 C 61.390625 -13.195312 63.429688 -14.210938 65.046875 -15.328125 C 66.660156 -16.441406 68.007812 -17.453125 69.09375 -18.359375 C 70.1875 -19.273438 71.257812 -19.734375 72.3125 -19.734375 C 73.601562 -19.734375 74.601562 -19.234375 75.3125 -18.234375 L 79.71875 -12.515625 C 77.78125 -10.097656 75.578125 -8.035156 73.109375 -6.328125 C 70.640625 -4.628906 67.984375 -3.207031 65.140625 -2.0625 C 62.296875 -0.925781 59.316406 -0.09375 56.203125 0.4375 C 53.085938 0.96875 49.914062 1.234375 46.6875 1.234375 C 41.101562 1.234375 35.914062 0.207031 31.125 -1.84375 C 26.34375 -3.90625 22.191406 -6.882812 18.671875 -10.78125 C 15.148438 -14.6875 12.390625 -19.488281 10.390625 -25.1875 C 8.398438 -30.882812 7.40625 -37.375 7.40625 -44.65625 C 7.40625 -51.289062 8.328125 -57.425781 10.171875 -63.0625 C 12.023438 -68.707031 14.726562 -73.566406 18.28125 -77.640625 C 21.832031 -81.722656 26.207031 -84.910156 31.40625 -87.203125 C 36.601562 -89.492188 42.578125 -90.640625 49.328125 -90.640625 C 55.609375 -90.640625 61.140625 -89.625 65.921875 -87.59375 C 70.710938 -85.570312 74.957031 -82.710938 78.65625 -79.015625 Z M 74.515625 -73.375 "/></g></g></g><g fill="#000000" fill-opacity="1"><g transform="translate(98.571313, 148.825301)"><g><path d="M 50.03125 -90.640625 C 56.550781 -90.640625 62.421875 -89.550781 67.640625 -87.375 C 72.867188 -85.207031 77.332031 -82.125 81.03125 -78.125 C 84.738281 -74.132812 87.570312 -69.304688 89.53125 -63.640625 C 91.5 -57.972656 92.484375 -51.644531 92.484375 -44.65625 C 92.484375 -37.613281 91.5 -31.269531 89.53125 -25.625 C 87.570312 -19.988281 84.738281 -15.175781 81.03125 -11.1875 C 77.332031 -7.195312 72.867188 -4.128906 67.640625 -1.984375 C 62.421875 0.160156 56.550781 1.234375 50.03125 1.234375 C 43.457031 1.234375 37.539062 0.160156 32.28125 -1.984375 C 27.03125 -4.128906 22.550781 -7.195312 18.84375 -11.1875 C 15.144531 -15.175781 12.3125 -19.988281 10.34375 -25.625 C 8.382812 -31.269531 7.40625 -37.613281 7.40625 -44.65625 C 7.40625 -51.644531 8.382812 -57.972656 10.34375 -63.640625 C 12.3125 -69.304688 15.144531 -74.132812 18.84375 -78.125 C 22.550781 -82.125 27.03125 -85.207031 32.28125 -87.375 C 37.539062 -89.550781 43.457031 -90.640625 50.03125 -90.640625 Z M 50.03125 -11.015625 C 58.84375 -11.015625 65.421875 -13.960938 69.765625 -19.859375 C 74.109375 -25.765625 76.28125 -34.003906 76.28125 -44.578125 C 76.28125 -55.203125 74.109375 -63.476562 69.765625 -69.40625 C 65.421875 -75.34375 58.84375 -78.3125 50.03125 -78.3125 C 45.570312 -78.3125 41.679688 -77.546875 38.359375 -76.015625 C 35.046875 -74.492188 32.285156 -72.289062 30.078125 -69.40625 C 27.878906 -66.53125 26.234375 -62.992188 25.140625 -58.796875 C 24.054688 -54.597656 23.515625 -49.859375 23.515625 -44.578125 C 23.515625 -34.003906 25.703125 -25.765625 30.078125 -19.859375 C 34.453125 -13.960938 41.101562 -11.015625 50.03125 -11.015625 Z M 50.03125 -11.015625 "/></g></g></g><g fill="#000000" fill-opacity="1"><g transform="translate(198.45474, 148.825301)"><g><path d="M 70.5625 -68 C 67.625 -71.9375 64.453125 -74.679688 61.046875 -76.234375 C 57.640625 -77.796875 53.820312 -78.578125 49.59375 -78.578125 C 41.3125 -78.578125 34.9375 -75.609375 30.46875 -69.671875 C 26.007812 -63.742188 23.78125 -55.289062 23.78125 -44.3125 C 23.78125 -38.5 24.28125 -33.519531 25.28125 -29.375 C 26.28125 -25.238281 27.75 -21.832031 29.6875 -19.15625 C 31.625 -16.488281 34 -14.535156 36.8125 -13.296875 C 39.632812 -12.066406 42.835938 -11.453125 46.421875 -11.453125 C 51.585938 -11.453125 56.09375 -12.625 59.9375 -14.96875 C 63.789062 -17.320312 67.332031 -20.640625 70.5625 -24.921875 Z M 86.234375 -129.75 L 86.234375 0 L 76.90625 0 C 74.664062 0 73.253906 -1.085938 72.671875 -3.265625 L 71.265625 -14.09375 C 67.441406 -9.507812 63.09375 -5.804688 58.21875 -2.984375 C 53.34375 -0.171875 47.707031 1.234375 41.3125 1.234375 C 36.207031 1.234375 31.566406 0.25 27.390625 -1.71875 C 23.222656 -3.6875 19.671875 -6.578125 16.734375 -10.390625 C 13.796875 -14.210938 11.535156 -18.96875 9.953125 -24.65625 C 8.367188 -30.351562 7.578125 -36.90625 7.578125 -44.3125 C 7.578125 -50.882812 8.457031 -57.003906 10.21875 -62.671875 C 11.976562 -68.335938 14.5 -73.253906 17.78125 -77.421875 C 21.070312 -81.597656 25.109375 -84.875 29.890625 -87.25 C 34.679688 -89.625 40.070312 -90.8125 46.0625 -90.8125 C 51.53125 -90.8125 56.210938 -89.882812 60.109375 -88.03125 C 64.015625 -86.1875 67.5 -83.617188 70.5625 -80.328125 L 70.5625 -129.75 Z M 86.234375 -129.75 "/></g></g></g><g fill="#000000" fill-opacity="1"><g transform="translate(297.105026, 148.825301)"><g><path d="M 72.140625 -54.34375 C 72.140625 -57.988281 71.625 -61.320312 70.59375 -64.34375 C 69.570312 -67.375 68.078125 -69.988281 66.109375 -72.1875 C 64.140625 -74.382812 61.742188 -76.082031 58.921875 -77.28125 C 56.109375 -78.488281 52.910156 -79.09375 49.328125 -79.09375 C 41.804688 -79.09375 35.859375 -76.90625 31.484375 -72.53125 C 27.109375 -68.15625 24.394531 -62.09375 23.34375 -54.34375 Z M 84.828125 -12.515625 C 82.890625 -10.160156 80.566406 -8.113281 77.859375 -6.375 C 75.160156 -4.644531 72.269531 -3.222656 69.1875 -2.109375 C 66.101562 -0.992188 62.914062 -0.160156 59.625 0.390625 C 56.34375 0.953125 53.085938 1.234375 49.859375 1.234375 C 43.691406 1.234375 38.007812 0.191406 32.8125 -1.890625 C 27.613281 -3.972656 23.117188 -7.023438 19.328125 -11.046875 C 15.546875 -15.078125 12.597656 -20.054688 10.484375 -25.984375 C 8.367188 -31.910156 7.3125 -38.722656 7.3125 -46.421875 C 7.3125 -52.648438 8.265625 -58.460938 10.171875 -63.859375 C 12.078125 -69.265625 14.820312 -73.945312 18.40625 -77.90625 C 21.988281 -81.875 26.363281 -84.988281 31.53125 -87.25 C 36.695312 -89.507812 42.507812 -90.640625 48.96875 -90.640625 C 54.3125 -90.640625 59.257812 -89.742188 63.8125 -87.953125 C 68.363281 -86.160156 72.296875 -83.578125 75.609375 -80.203125 C 78.929688 -76.828125 81.53125 -72.65625 83.40625 -67.6875 C 85.289062 -62.726562 86.234375 -57.078125 86.234375 -50.734375 C 86.234375 -48.265625 85.96875 -46.617188 85.4375 -45.796875 C 84.914062 -44.984375 83.921875 -44.578125 82.453125 -44.578125 L 22.8125 -44.578125 C 22.988281 -38.929688 23.765625 -34.023438 25.140625 -29.859375 C 26.523438 -25.691406 28.453125 -22.210938 30.921875 -19.421875 C 33.390625 -16.628906 36.320312 -14.539062 39.71875 -13.15625 C 43.125 -11.78125 46.941406 -11.09375 51.171875 -11.09375 C 55.109375 -11.09375 58.5 -11.546875 61.34375 -12.453125 C 64.195312 -13.367188 66.648438 -14.351562 68.703125 -15.40625 C 70.765625 -16.46875 72.484375 -17.453125 73.859375 -18.359375 C 75.242188 -19.273438 76.429688 -19.734375 77.421875 -19.734375 C 78.710938 -19.734375 79.710938 -19.234375 80.421875 -18.234375 Z M 84.828125 -12.515625 "/></g></g></g><g fill="#5271ff" fill-opacity="1"><g transform="translate(390.123989, 148.825301)"><g><path d="M 18.234375 0 L 18.234375 -75.84375 L 8.375 -76.984375 C 7.132812 -77.273438 6.117188 -77.726562 5.328125 -78.34375 C 4.535156 -78.96875 4.140625 -79.863281 4.140625 -81.03125 L 4.140625 -87.46875 L 18.234375 -87.46875 L 18.234375 -96.109375 C 18.234375 -101.210938 18.953125 -105.742188 20.390625 -109.703125 C 21.828125 -113.671875 23.878906 -117.019531 26.546875 -119.75 C 29.222656 -122.476562 32.441406 -124.546875 36.203125 -125.953125 C 39.960938 -127.367188 44.191406 -128.078125 48.890625 -128.078125 C 52.878906 -128.078125 56.546875 -127.488281 59.890625 -126.3125 L 59.546875 -118.46875 C 59.429688 -117.0625 58.648438 -116.300781 57.203125 -116.1875 C 55.765625 -116.070312 53.84375 -116.015625 51.4375 -116.015625 C 48.738281 -116.015625 46.285156 -115.660156 44.078125 -114.953125 C 41.878906 -114.242188 39.988281 -113.097656 38.40625 -111.515625 C 36.820312 -109.929688 35.601562 -107.847656 34.75 -105.265625 C 33.894531 -102.679688 33.46875 -99.476562 33.46875 -95.65625 L 33.46875 -87.46875 L 59.1875 -87.46875 L 59.1875 -76.109375 L 34 -76.109375 L 34 0 Z M 18.234375 0 "/></g></g></g><g fill="#5271ff" fill-opacity="1"><g transform="translate(451.86851, 148.825301)"><g><path d="M 50.03125 -90.640625 C 56.550781 -90.640625 62.421875 -89.550781 67.640625 -87.375 C 72.867188 -85.207031 77.332031 -82.125 81.03125 -78.125 C 84.738281 -74.132812 87.570312 -69.304688 89.53125 -63.640625 C 91.5 -57.972656 92.484375 -51.644531 92.484375 -44.65625 C 92.484375 -37.613281 91.5 -31.269531 89.53125 -25.625 C 87.570312 -19.988281 84.738281 -15.175781 81.03125 -11.1875 C 77.332031 -7.195312 72.867188 -4.128906 67.640625 -1.984375 C 62.421875 0.160156 56.550781 1.234375 50.03125 1.234375 C 43.457031 1.234375 37.539062 0.160156 32.28125 -1.984375 C 27.03125 -4.128906 22.550781 -7.195312 18.84375 -11.1875 C 15.144531 -15.175781 12.3125 -19.988281 10.34375 -25.625 C 8.382812 -31.269531 7.40625 -37.613281 7.40625 -44.65625 C 7.40625 -51.644531 8.382812 -57.972656 10.34375 -63.640625 C 12.3125 -69.304688 15.144531 -74.132812 18.84375 -78.125 C 22.550781 -82.125 27.03125 -85.207031 32.28125 -87.375 C 37.539062 -89.550781 43.457031 -90.640625 50.03125 -90.640625 Z M 50.03125 -11.015625 C 58.84375 -11.015625 65.421875 -13.960938 69.765625 -19.859375 C 74.109375 -25.765625 76.28125 -34.003906 76.28125 -44.578125 C 76.28125 -55.203125 74.109375 -63.476562 69.765625 -69.40625 C 65.421875 -75.34375 58.84375 -78.3125 50.03125 -78.3125 C 45.570312 -78.3125 41.679688 -77.546875 38.359375 -76.015625 C 35.046875 -74.492188 32.285156 -72.289062 30.078125 -69.40625 C 27.878906 -66.53125 26.234375 -62.992188 25.140625 -58.796875 C 24.054688 -54.597656 23.515625 -49.859375 23.515625 -44.578125 C 23.515625 -34.003906 25.703125 -25.765625 30.078125 -19.859375 C 34.453125 -13.960938 41.101562 -11.015625 50.03125 -11.015625 Z M 50.03125 -11.015625 "/></g></g></g><g fill="#5271ff" fill-opacity="1"><g transform="translate(551.751937, 148.825301)"><g><path d="M 28.625 -129.75 L 28.625 0 L 12.953125 0 L 12.953125 -129.75 Z M 28.625 -129.75 "/></g></g></g><g fill="#5271ff" fill-opacity="1"><g transform="translate(593.325992, 148.825301)"><g><path d="M 28.984375 -89.234375 L 28.984375 0 L 13.296875 0 L 13.296875 -89.234375 Z M 32.328125 -117.25 C 32.328125 -115.71875 32.019531 -114.289062 31.40625 -112.96875 C 30.789062 -111.644531 29.96875 -110.46875 28.9375 -109.4375 C 27.90625 -108.414062 26.695312 -107.609375 25.3125 -107.015625 C 23.9375 -106.429688 22.488281 -106.140625 20.96875 -106.140625 C 19.4375 -106.140625 18.007812 -106.429688 16.6875 -107.015625 C 15.363281 -107.609375 14.203125 -108.414062 13.203125 -109.4375 C 12.210938 -110.46875 11.421875 -111.644531 10.828125 -112.96875 C 10.242188 -114.289062 9.953125 -115.71875 9.953125 -117.25 C 9.953125 -118.769531 10.242188 -120.21875 10.828125 -121.59375 C 11.421875 -122.976562 12.210938 -124.179688 13.203125 -125.203125 C 14.203125 -126.234375 15.363281 -127.039062 16.6875 -127.625 C 18.007812 -128.21875 19.4375 -128.515625 20.96875 -128.515625 C 22.488281 -128.515625 23.9375 -128.21875 25.3125 -127.625 C 26.695312 -127.039062 27.90625 -126.234375 28.9375 -125.203125 C 29.96875 -124.179688 30.789062 -122.976562 31.40625 -121.59375 C 32.019531 -120.21875 32.328125 -118.769531 32.328125 -117.25 Z M 32.328125 -117.25 "/></g></g></g><g fill="#5271ff" fill-opacity="1"><g transform="translate(635.604693, 148.825301)"><g><path d="M 50.03125 -90.640625 C 56.550781 -90.640625 62.421875 -89.550781 67.640625 -87.375 C 72.867188 -85.207031 77.332031 -82.125 81.03125 -78.125 C 84.738281 -74.132812 87.570312 -69.304688 89.53125 -63.640625 C 91.5 -57.972656 92.484375 -51.644531 92.484375 -44.65625 C 92.484375 -37.613281 91.5 -31.269531 89.53125 -25.625 C 87.570312 -19.988281 84.738281 -15.175781 81.03125 -11.1875 C 77.332031 -7.195312 72.867188 -4.128906 67.640625 -1.984375 C 62.421875 0.160156 56.550781 1.234375 50.03125 1.234375 C 43.457031 1.234375 37.539062 0.160156 32.28125 -1.984375 C 27.03125 -4.128906 22.550781 -7.195312 18.84375 -11.1875 C 15.144531 -15.175781 12.3125 -19.988281 10.34375 -25.625 C 8.382812 -31.269531 7.40625 -37.613281 7.40625 -44.65625 C 7.40625 -51.644531 8.382812 -57.972656 10.34375 -63.640625 C 12.3125 -69.304688 15.144531 -74.132812 18.84375 -78.125 C 22.550781 -82.125 27.03125 -85.207031 32.28125 -87.375 C 37.539062 -89.550781 43.457031 -90.640625 50.03125 -90.640625 Z M 50.03125 -11.015625 C 58.84375 -11.015625 65.421875 -13.960938 69.765625 -19.859375 C 74.109375 -25.765625 76.28125 -34.003906 76.28125 -44.578125 C 76.28125 -55.203125 74.109375 -63.476562 69.765625 -69.40625 C 65.421875 -75.34375 58.84375 -78.3125 50.03125 -78.3125 C 45.570312 -78.3125 41.679688 -77.546875 38.359375 -76.015625 C 35.046875 -74.492188 32.285156 -72.289062 30.078125 -69.40625 C 27.878906 -66.53125 26.234375 -62.992188 25.140625 -58.796875 C 24.054688 -54.597656 23.515625 -49.859375 23.515625 -44.578125 C 23.515625 -34.003906 25.703125 -25.765625 30.078125 -19.859375 C 34.453125 -13.960938 41.101562 -11.015625 50.03125 -11.015625 Z M 50.03125 -11.015625 "/></g></g></g></svg>