<svg xmlns="http://www.w3.org/2000/svg" xmlns:xlink="http://www.w3.org/1999/xlink" width="1000" zoomAndPan="magnify" viewBox="0 0 750 187.499995" height="250" preserveAspectRatio="xMidYMid meet" version="1.0"><defs><g/><clipPath id="723e1c7718"><path d="M 14.039062 17.417969 L 167.210938 17.417969 L 167.210938 170.585938 L 14.039062 170.585938 Z M 14.039062 17.417969 " clip-rule="nonzero"/></clipPath><clipPath id="b7eb6abac2"><path d="M 36.480469 17.417969 L 144.769531 17.417969 C 150.722656 17.417969 156.429688 19.78125 160.636719 23.988281 C 164.847656 28.199219 167.210938 33.90625 167.210938 39.855469 L 167.210938 148.148438 C 167.210938 154.097656 164.847656 159.804688 160.636719 164.015625 C 156.429688 168.222656 150.722656 170.585938 144.769531 170.585938 L 36.480469 170.585938 C 30.527344 170.585938 24.820312 168.222656 20.613281 164.015625 C 16.40625 159.804688 14.039062 154.097656 14.039062 148.148438 L 14.039062 39.855469 C 14.039062 33.90625 16.40625 28.199219 20.613281 23.988281 C 24.820312 19.78125 30.527344 17.417969 36.480469 17.417969 Z M 36.480469 17.417969 " clip-rule="nonzero"/></clipPath></defs><g fill="#000000" fill-opacity="1"><g transform="translate(177.348831, 130.152145)"><g><path d="M 50.78125 -50 C 50.46875 -49.5625 50.148438 -49.222656 49.828125 -48.984375 C 49.503906 -48.742188 49.0625 -48.625 48.5 -48.625 C 47.90625 -48.625 47.242188 -48.875 46.515625 -49.375 C 45.796875 -49.875 44.90625 -50.421875 43.84375 -51.015625 C 42.789062 -51.617188 41.492188 -52.171875 39.953125 -52.671875 C 38.410156 -53.171875 36.519531 -53.421875 34.28125 -53.421875 C 31.28125 -53.421875 28.640625 -52.890625 26.359375 -51.828125 C 24.078125 -50.773438 22.164062 -49.25 20.625 -47.25 C 19.082031 -45.25 17.921875 -42.828125 17.140625 -39.984375 C 16.359375 -37.140625 15.96875 -33.957031 15.96875 -30.4375 C 15.96875 -26.75 16.382812 -23.472656 17.21875 -20.609375 C 18.0625 -17.753906 19.253906 -15.351562 20.796875 -13.40625 C 22.335938 -11.46875 24.195312 -9.988281 26.375 -8.96875 C 28.5625 -7.945312 31.015625 -7.4375 33.734375 -7.4375 C 36.335938 -7.4375 38.476562 -7.75 40.15625 -8.375 C 41.84375 -9 43.234375 -9.691406 44.328125 -10.453125 C 45.429688 -11.210938 46.351562 -11.898438 47.09375 -12.515625 C 47.832031 -13.140625 48.5625 -13.453125 49.28125 -13.453125 C 50.164062 -13.453125 50.847656 -13.109375 51.328125 -12.421875 L 54.328125 -8.53125 C 53.003906 -6.882812 51.5 -5.476562 49.8125 -4.3125 C 48.132812 -3.15625 46.328125 -2.1875 44.390625 -1.40625 C 42.453125 -0.625 40.421875 -0.0546875 38.296875 0.296875 C 36.179688 0.660156 34.019531 0.84375 31.8125 0.84375 C 28.007812 0.84375 24.476562 0.144531 21.21875 -1.25 C 17.957031 -2.65625 15.125 -4.6875 12.71875 -7.34375 C 10.320312 -10.007812 8.441406 -13.28125 7.078125 -17.15625 C 5.722656 -21.039062 5.046875 -25.46875 5.046875 -30.4375 C 5.046875 -34.957031 5.675781 -39.140625 6.9375 -42.984375 C 8.195312 -46.828125 10.035156 -50.140625 12.453125 -52.921875 C 14.878906 -55.703125 17.863281 -57.867188 21.40625 -59.421875 C 24.945312 -60.984375 29.019531 -61.765625 33.625 -61.765625 C 37.90625 -61.765625 41.675781 -61.070312 44.9375 -59.6875 C 48.195312 -58.3125 51.085938 -56.363281 53.609375 -53.84375 Z M 50.78125 -50 "/></g></g></g><g fill="#000000" fill-opacity="1"><g transform="translate(234.675893, 130.152145)"><g><path d="M 41.421875 -27.375 C 36.492188 -27.21875 32.300781 -26.828125 28.84375 -26.203125 C 25.382812 -25.578125 22.5625 -24.765625 20.375 -23.765625 C 18.195312 -22.765625 16.617188 -21.582031 15.640625 -20.21875 C 14.660156 -18.863281 14.171875 -17.347656 14.171875 -15.671875 C 14.171875 -14.066406 14.429688 -12.679688 14.953125 -11.515625 C 15.472656 -10.359375 16.179688 -9.410156 17.078125 -8.671875 C 17.972656 -7.929688 19.03125 -7.390625 20.25 -7.046875 C 21.476562 -6.710938 22.789062 -6.546875 24.1875 -6.546875 C 26.070312 -6.546875 27.796875 -6.734375 29.359375 -7.109375 C 30.921875 -7.492188 32.390625 -8.046875 33.765625 -8.765625 C 35.148438 -9.484375 36.472656 -10.34375 37.734375 -11.34375 C 38.992188 -12.34375 40.222656 -13.484375 41.421875 -14.765625 Z M 6.90625 -52.234375 C 10.269531 -55.472656 13.890625 -57.890625 17.765625 -59.484375 C 21.648438 -61.085938 25.953125 -61.890625 30.671875 -61.890625 C 34.078125 -61.890625 37.097656 -61.328125 39.734375 -60.203125 C 42.378906 -59.085938 44.601562 -57.53125 46.40625 -55.53125 C 48.207031 -53.53125 49.566406 -51.109375 50.484375 -48.265625 C 51.398438 -45.421875 51.859375 -42.300781 51.859375 -38.90625 L 51.859375 0 L 47.125 0 C 46.082031 0 45.28125 -0.164062 44.71875 -0.5 C 44.15625 -0.84375 43.71875 -1.515625 43.40625 -2.515625 L 42.203125 -8.28125 C 40.597656 -6.800781 39.035156 -5.488281 37.515625 -4.34375 C 35.992188 -3.207031 34.394531 -2.25 32.71875 -1.46875 C 31.039062 -0.6875 29.25 -0.0859375 27.34375 0.328125 C 25.445312 0.742188 23.335938 0.953125 21.015625 0.953125 C 18.648438 0.953125 16.425781 0.625 14.34375 -0.03125 C 12.257812 -0.6875 10.445312 -1.675781 8.90625 -3 C 7.375 -4.320312 6.15625 -5.992188 5.25 -8.015625 C 4.351562 -10.035156 3.90625 -12.425781 3.90625 -15.1875 C 3.90625 -17.59375 4.5625 -19.90625 5.875 -22.125 C 7.195312 -24.34375 9.335938 -26.3125 12.296875 -28.03125 C 15.265625 -29.75 19.128906 -31.160156 23.890625 -32.265625 C 28.648438 -33.367188 34.492188 -34 41.421875 -34.15625 L 41.421875 -38.90625 C 41.421875 -43.625 40.398438 -47.191406 38.359375 -49.609375 C 36.316406 -52.035156 33.335938 -53.25 29.421875 -53.25 C 26.773438 -53.25 24.5625 -52.914062 22.78125 -52.25 C 21 -51.59375 19.457031 -50.851562 18.15625 -50.03125 C 16.851562 -49.21875 15.734375 -48.476562 14.796875 -47.8125 C 13.859375 -47.15625 12.925781 -46.828125 12 -46.828125 C 11.28125 -46.828125 10.660156 -47.015625 10.140625 -47.390625 C 9.617188 -47.773438 9.179688 -48.25 8.828125 -48.8125 Z M 6.90625 -52.234375 "/></g></g></g><g fill="#000000" fill-opacity="1"><g transform="translate(294.344061, 130.152145)"><g><path d="M 18.609375 -48.625 C 20.523438 -52.789062 22.882812 -56.039062 25.6875 -58.375 C 28.488281 -60.71875 31.910156 -61.890625 35.953125 -61.890625 C 37.234375 -61.890625 38.460938 -61.75 39.640625 -61.46875 C 40.828125 -61.1875 41.878906 -60.75 42.796875 -60.15625 L 42.015625 -52.171875 C 41.773438 -51.171875 41.175781 -50.671875 40.21875 -50.671875 C 39.65625 -50.671875 38.832031 -50.789062 37.75 -51.03125 C 36.675781 -51.269531 35.457031 -51.390625 34.09375 -51.390625 C 32.175781 -51.390625 30.46875 -51.109375 28.96875 -50.546875 C 27.46875 -49.984375 26.125 -49.148438 24.9375 -48.046875 C 23.757812 -46.953125 22.695312 -45.59375 21.75 -43.96875 C 20.8125 -42.351562 19.960938 -40.503906 19.203125 -38.421875 L 19.203125 0 L 8.46875 0 L 8.46875 -60.8125 L 14.59375 -60.8125 C 15.75 -60.8125 16.546875 -60.585938 16.984375 -60.140625 C 17.429688 -59.703125 17.734375 -58.945312 17.890625 -57.875 Z M 18.609375 -48.625 "/></g></g></g><g fill="#000000" fill-opacity="1"><g transform="translate(338.044687, 130.152145)"><g><path d="M 49.171875 -37.046875 C 49.171875 -39.523438 48.816406 -41.789062 48.109375 -43.84375 C 47.410156 -45.90625 46.390625 -47.6875 45.046875 -49.1875 C 43.710938 -50.695312 42.082031 -51.859375 40.15625 -52.671875 C 38.238281 -53.492188 36.0625 -53.90625 33.625 -53.90625 C 28.5 -53.90625 24.441406 -52.414062 21.453125 -49.4375 C 18.472656 -46.457031 16.625 -42.328125 15.90625 -37.046875 Z M 57.8125 -8.53125 C 56.488281 -6.925781 54.90625 -5.53125 53.0625 -4.34375 C 51.226562 -3.164062 49.257812 -2.195312 47.15625 -1.4375 C 45.050781 -0.675781 42.878906 -0.109375 40.640625 0.265625 C 38.398438 0.648438 36.179688 0.84375 33.984375 0.84375 C 29.773438 0.84375 25.898438 0.132812 22.359375 -1.28125 C 18.816406 -2.707031 15.753906 -4.789062 13.171875 -7.53125 C 10.597656 -10.269531 8.585938 -13.660156 7.140625 -17.703125 C 5.703125 -21.742188 4.984375 -26.390625 4.984375 -31.640625 C 4.984375 -35.878906 5.632812 -39.835938 6.9375 -43.515625 C 8.238281 -47.203125 10.109375 -50.394531 12.546875 -53.09375 C 14.984375 -55.800781 17.960938 -57.921875 21.484375 -59.453125 C 25.015625 -60.992188 28.976562 -61.765625 33.375 -61.765625 C 37.019531 -61.765625 40.390625 -61.15625 43.484375 -59.9375 C 46.585938 -58.71875 49.269531 -56.957031 51.53125 -54.65625 C 53.789062 -52.351562 55.5625 -49.507812 56.84375 -46.125 C 58.125 -42.75 58.765625 -38.898438 58.765625 -34.578125 C 58.765625 -32.898438 58.582031 -31.78125 58.21875 -31.21875 C 57.863281 -30.65625 57.1875 -30.375 56.1875 -30.375 L 15.546875 -30.375 C 15.671875 -26.53125 16.203125 -23.1875 17.140625 -20.34375 C 18.078125 -17.507812 19.382812 -15.140625 21.0625 -13.234375 C 22.75 -11.335938 24.753906 -9.914062 27.078125 -8.96875 C 29.398438 -8.03125 32 -7.5625 34.875 -7.5625 C 37.5625 -7.5625 39.875 -7.867188 41.8125 -8.484375 C 43.75 -9.109375 45.414062 -9.78125 46.8125 -10.5 C 48.21875 -11.226562 49.390625 -11.898438 50.328125 -12.515625 C 51.273438 -13.140625 52.085938 -13.453125 52.765625 -13.453125 C 53.648438 -13.453125 54.332031 -13.109375 54.8125 -12.421875 Z M 57.8125 -8.53125 "/></g></g></g><g fill="#000000" fill-opacity="1"><g transform="translate(401.434613, 130.152145)"><g><path d="M 49.171875 -37.046875 C 49.171875 -39.523438 48.816406 -41.789062 48.109375 -43.84375 C 47.410156 -45.90625 46.390625 -47.6875 45.046875 -49.1875 C 43.710938 -50.695312 42.082031 -51.859375 40.15625 -52.671875 C 38.238281 -53.492188 36.0625 -53.90625 33.625 -53.90625 C 28.5 -53.90625 24.441406 -52.414062 21.453125 -49.4375 C 18.472656 -46.457031 16.625 -42.328125 15.90625 -37.046875 Z M 57.8125 -8.53125 C 56.488281 -6.925781 54.90625 -5.53125 53.0625 -4.34375 C 51.226562 -3.164062 49.257812 -2.195312 47.15625 -1.4375 C 45.050781 -0.675781 42.878906 -0.109375 40.640625 0.265625 C 38.398438 0.648438 36.179688 0.84375 33.984375 0.84375 C 29.773438 0.84375 25.898438 0.132812 22.359375 -1.28125 C 18.816406 -2.707031 15.753906 -4.789062 13.171875 -7.53125 C 10.597656 -10.269531 8.585938 -13.660156 7.140625 -17.703125 C 5.703125 -21.742188 4.984375 -26.390625 4.984375 -31.640625 C 4.984375 -35.878906 5.632812 -39.835938 6.9375 -43.515625 C 8.238281 -47.203125 10.109375 -50.394531 12.546875 -53.09375 C 14.984375 -55.800781 17.960938 -57.921875 21.484375 -59.453125 C 25.015625 -60.992188 28.976562 -61.765625 33.375 -61.765625 C 37.019531 -61.765625 40.390625 -61.15625 43.484375 -59.9375 C 46.585938 -58.71875 49.269531 -56.957031 51.53125 -54.65625 C 53.789062 -52.351562 55.5625 -49.507812 56.84375 -46.125 C 58.125 -42.75 58.765625 -38.898438 58.765625 -34.578125 C 58.765625 -32.898438 58.582031 -31.78125 58.21875 -31.21875 C 57.863281 -30.65625 57.1875 -30.375 56.1875 -30.375 L 15.546875 -30.375 C 15.671875 -26.53125 16.203125 -23.1875 17.140625 -20.34375 C 18.078125 -17.507812 19.382812 -15.140625 21.0625 -13.234375 C 22.75 -11.335938 24.753906 -9.914062 27.078125 -8.96875 C 29.398438 -8.03125 32 -7.5625 34.875 -7.5625 C 37.5625 -7.5625 39.875 -7.867188 41.8125 -8.484375 C 43.75 -9.109375 45.414062 -9.78125 46.8125 -10.5 C 48.21875 -11.226562 49.390625 -11.898438 50.328125 -12.515625 C 51.273438 -13.140625 52.085938 -13.453125 52.765625 -13.453125 C 53.648438 -13.453125 54.332031 -13.109375 54.8125 -12.421875 Z M 57.8125 -8.53125 "/></g></g></g><g fill="#000000" fill-opacity="1"><g transform="translate(464.824539, 130.152145)"><g><path d="M 18.609375 -48.625 C 20.523438 -52.789062 22.882812 -56.039062 25.6875 -58.375 C 28.488281 -60.71875 31.910156 -61.890625 35.953125 -61.890625 C 37.234375 -61.890625 38.460938 -61.75 39.640625 -61.46875 C 40.828125 -61.1875 41.878906 -60.75 42.796875 -60.15625 L 42.015625 -52.171875 C 41.773438 -51.171875 41.175781 -50.671875 40.21875 -50.671875 C 39.65625 -50.671875 38.832031 -50.789062 37.75 -51.03125 C 36.675781 -51.269531 35.457031 -51.390625 34.09375 -51.390625 C 32.175781 -51.390625 30.46875 -51.109375 28.96875 -50.546875 C 27.46875 -49.984375 26.125 -49.148438 24.9375 -48.046875 C 23.757812 -46.953125 22.695312 -45.59375 21.75 -43.96875 C 20.8125 -42.351562 19.960938 -40.503906 19.203125 -38.421875 L 19.203125 0 L 8.46875 0 L 8.46875 -60.8125 L 14.59375 -60.8125 C 15.75 -60.8125 16.546875 -60.585938 16.984375 -60.140625 C 17.429688 -59.703125 17.734375 -58.945312 17.890625 -57.875 Z M 18.609375 -48.625 "/></g></g></g><g fill="#5271ff" fill-opacity="1"><g transform="translate(508.525518, 130.152145)"><g><path d="M 12.421875 0 L 12.421875 -51.6875 L 5.703125 -52.46875 C 4.859375 -52.664062 4.164062 -52.972656 3.625 -53.390625 C 3.09375 -53.816406 2.828125 -54.429688 2.828125 -55.234375 L 2.828125 -59.609375 L 12.421875 -59.609375 L 12.421875 -65.5 C 12.421875 -68.976562 12.910156 -72.066406 13.890625 -74.765625 C 14.878906 -77.472656 16.28125 -79.753906 18.09375 -81.609375 C 19.914062 -83.472656 22.109375 -84.882812 24.671875 -85.84375 C 27.234375 -86.800781 30.113281 -87.28125 33.3125 -87.28125 C 36.039062 -87.28125 38.546875 -86.878906 40.828125 -86.078125 L 40.578125 -80.734375 C 40.503906 -79.773438 39.972656 -79.253906 38.984375 -79.171875 C 38.003906 -79.097656 36.695312 -79.0625 35.0625 -79.0625 C 33.21875 -79.0625 31.546875 -78.820312 30.046875 -78.34375 C 28.546875 -77.863281 27.253906 -77.082031 26.171875 -76 C 25.085938 -74.914062 24.253906 -73.492188 23.671875 -71.734375 C 23.097656 -69.972656 22.8125 -67.789062 22.8125 -65.1875 L 22.8125 -59.609375 L 40.34375 -59.609375 L 40.34375 -51.859375 L 23.171875 -51.859375 L 23.171875 0 Z M 12.421875 0 "/></g></g></g><g fill="#5271ff" fill-opacity="1"><g transform="translate(550.605382, 130.152145)"><g><path d="M 34.09375 -61.765625 C 38.539062 -61.765625 42.546875 -61.023438 46.109375 -59.546875 C 49.671875 -58.066406 52.710938 -55.96875 55.234375 -53.25 C 57.753906 -50.53125 59.679688 -47.238281 61.015625 -43.375 C 62.359375 -39.507812 63.03125 -35.195312 63.03125 -30.4375 C 63.03125 -25.632812 62.359375 -21.3125 61.015625 -17.46875 C 59.679688 -13.625 57.753906 -10.34375 55.234375 -7.625 C 52.710938 -4.90625 49.671875 -2.8125 46.109375 -1.34375 C 42.546875 0.113281 38.539062 0.84375 34.09375 0.84375 C 29.613281 0.84375 25.582031 0.113281 22 -1.34375 C 18.414062 -2.8125 15.363281 -4.90625 12.84375 -7.625 C 10.320312 -10.34375 8.390625 -13.625 7.046875 -17.46875 C 5.710938 -21.3125 5.046875 -25.632812 5.046875 -30.4375 C 5.046875 -35.195312 5.710938 -39.507812 7.046875 -43.375 C 8.390625 -47.238281 10.320312 -50.53125 12.84375 -53.25 C 15.363281 -55.96875 18.414062 -58.066406 22 -59.546875 C 25.582031 -61.023438 29.613281 -61.765625 34.09375 -61.765625 Z M 34.09375 -7.5 C 40.101562 -7.5 44.585938 -9.507812 47.546875 -13.53125 C 50.503906 -17.550781 51.984375 -23.164062 51.984375 -30.375 C 51.984375 -37.613281 50.503906 -43.253906 47.546875 -47.296875 C 44.585938 -51.347656 40.101562 -53.375 34.09375 -53.375 C 31.050781 -53.375 28.398438 -52.851562 26.140625 -51.8125 C 23.878906 -50.769531 22 -49.265625 20.5 -47.296875 C 19 -45.335938 17.878906 -42.925781 17.140625 -40.0625 C 16.398438 -37.207031 16.03125 -33.976562 16.03125 -30.375 C 16.03125 -23.164062 17.519531 -17.550781 20.5 -13.53125 C 23.476562 -9.507812 28.007812 -7.5 34.09375 -7.5 Z M 34.09375 -7.5 "/></g></g></g><g fill="#5271ff" fill-opacity="1"><g transform="translate(618.677511, 130.152145)"><g><path d="M 19.515625 -88.421875 L 19.515625 0 L 8.828125 0 L 8.828125 -88.421875 Z M 19.515625 -88.421875 "/></g></g></g><g fill="#5271ff" fill-opacity="1"><g transform="translate(647.010883, 130.152145)"><g><path d="M 19.75 -60.8125 L 19.75 0 L 9.0625 0 L 9.0625 -60.8125 Z M 22.03125 -79.90625 C 22.03125 -78.863281 21.816406 -77.890625 21.390625 -76.984375 C 20.972656 -76.085938 20.414062 -75.285156 19.71875 -74.578125 C 19.019531 -73.878906 18.195312 -73.332031 17.25 -72.9375 C 16.3125 -72.539062 15.320312 -72.34375 14.28125 -72.34375 C 13.25 -72.34375 12.28125 -72.539062 11.375 -72.9375 C 10.476562 -73.332031 9.6875 -73.878906 9 -74.578125 C 8.320312 -75.285156 7.78125 -76.085938 7.375 -76.984375 C 6.976562 -77.890625 6.78125 -78.863281 6.78125 -79.90625 C 6.78125 -80.945312 6.976562 -81.9375 7.375 -82.875 C 7.78125 -83.8125 8.320312 -84.628906 9 -85.328125 C 9.6875 -86.035156 10.476562 -86.585938 11.375 -86.984375 C 12.28125 -87.378906 13.25 -87.578125 14.28125 -87.578125 C 15.320312 -87.578125 16.3125 -87.378906 17.25 -86.984375 C 18.195312 -86.585938 19.019531 -86.035156 19.71875 -85.328125 C 20.414062 -84.628906 20.972656 -83.8125 21.390625 -82.875 C 21.816406 -81.9375 22.03125 -80.945312 22.03125 -79.90625 Z M 22.03125 -79.90625 "/></g></g></g><g fill="#5271ff" fill-opacity="1"><g transform="translate(675.824488, 130.152145)"><g><path d="M 34.09375 -61.765625 C 38.539062 -61.765625 42.546875 -61.023438 46.109375 -59.546875 C 49.671875 -58.066406 52.710938 -55.96875 55.234375 -53.25 C 57.753906 -50.53125 59.679688 -47.238281 61.015625 -43.375 C 62.359375 -39.507812 63.03125 -35.195312 63.03125 -30.4375 C 63.03125 -25.632812 62.359375 -21.3125 61.015625 -17.46875 C 59.679688 -13.625 57.753906 -10.34375 55.234375 -7.625 C 52.710938 -4.90625 49.671875 -2.8125 46.109375 -1.34375 C 42.546875 0.113281 38.539062 0.84375 34.09375 0.84375 C 29.613281 0.84375 25.582031 0.113281 22 -1.34375 C 18.414062 -2.8125 15.363281 -4.90625 12.84375 -7.625 C 10.320312 -10.34375 8.390625 -13.625 7.046875 -17.46875 C 5.710938 -21.3125 5.046875 -25.632812 5.046875 -30.4375 C 5.046875 -35.195312 5.710938 -39.507812 7.046875 -43.375 C 8.390625 -47.238281 10.320312 -50.53125 12.84375 -53.25 C 15.363281 -55.96875 18.414062 -58.066406 22 -59.546875 C 25.582031 -61.023438 29.613281 -61.765625 34.09375 -61.765625 Z M 34.09375 -7.5 C 40.101562 -7.5 44.585938 -9.507812 47.546875 -13.53125 C 50.503906 -17.550781 51.984375 -23.164062 51.984375 -30.375 C 51.984375 -37.613281 50.503906 -43.253906 47.546875 -47.296875 C 44.585938 -51.347656 40.101562 -53.375 34.09375 -53.375 C 31.050781 -53.375 28.398438 -52.851562 26.140625 -51.8125 C 23.878906 -50.769531 22 -49.265625 20.5 -47.296875 C 19 -45.335938 17.878906 -42.925781 17.140625 -40.0625 C 16.398438 -37.207031 16.03125 -33.976562 16.03125 -30.375 C 16.03125 -23.164062 17.519531 -17.550781 20.5 -13.53125 C 23.476562 -9.507812 28.007812 -7.5 34.09375 -7.5 Z M 34.09375 -7.5 "/></g></g></g><g clip-path="url(#723e1c7718)"><g clip-path="url(#b7eb6abac2)"><path fill="#5271ff" d="M 14.039062 17.417969 L 167.210938 17.417969 L 167.210938 170.585938 L 14.039062 170.585938 Z M 14.039062 17.417969 " fill-opacity="1" fill-rule="nonzero"/></g></g><g fill="#ffffff" fill-opacity="1"><g transform="translate(34.06826, 142.897864)"><g><path d="M 55.28125 -52.1875 C 54.800781 -51.582031 54.335938 -51.109375 53.890625 -50.765625 C 53.441406 -50.421875 52.785156 -50.25 51.921875 -50.25 C 51.109375 -50.25 50.3125 -50.492188 49.53125 -50.984375 C 48.757812 -51.484375 47.835938 -52.039062 46.765625 -52.65625 C 45.691406 -53.28125 44.410156 -53.835938 42.921875 -54.328125 C 41.441406 -54.828125 39.601562 -55.078125 37.40625 -55.078125 C 34.613281 -55.078125 32.160156 -54.570312 30.046875 -53.5625 C 27.941406 -52.550781 26.191406 -51.097656 24.796875 -49.203125 C 23.398438 -47.316406 22.359375 -45.03125 21.671875 -42.34375 C 20.984375 -39.65625 20.640625 -36.613281 20.640625 -33.21875 C 20.640625 -29.6875 21.015625 -26.546875 21.765625 -23.796875 C 22.515625 -21.046875 23.597656 -18.734375 25.015625 -16.859375 C 26.441406 -14.992188 28.164062 -13.578125 30.1875 -12.609375 C 32.207031 -11.640625 34.484375 -11.15625 37.015625 -11.15625 C 39.554688 -11.15625 41.609375 -11.46875 43.171875 -12.09375 C 44.742188 -12.71875 46.066406 -13.40625 47.140625 -14.15625 C 48.222656 -14.90625 49.160156 -15.59375 49.953125 -16.21875 C 50.753906 -16.84375 51.644531 -17.15625 52.625 -17.15625 C 53.914062 -17.15625 54.882812 -16.660156 55.53125 -15.671875 L 60.109375 -9.875 C 58.347656 -7.800781 56.4375 -6.066406 54.375 -4.671875 C 52.3125 -3.273438 50.171875 -2.15625 47.953125 -1.3125 C 45.742188 -0.476562 43.46875 0.109375 41.125 0.453125 C 38.78125 0.796875 36.445312 0.96875 34.125 0.96875 C 30.039062 0.96875 26.191406 0.207031 22.578125 -1.3125 C 18.960938 -2.84375 15.800781 -5.070312 13.09375 -8 C 10.382812 -10.925781 8.242188 -14.503906 6.671875 -18.734375 C 5.109375 -22.972656 4.328125 -27.800781 4.328125 -33.21875 C 4.328125 -38.070312 5.023438 -42.570312 6.421875 -46.71875 C 7.816406 -50.875 9.867188 -54.46875 12.578125 -57.5 C 15.285156 -60.53125 18.640625 -62.90625 22.640625 -64.625 C 26.640625 -66.34375 31.238281 -67.203125 36.4375 -67.203125 C 41.382812 -67.203125 45.71875 -66.40625 49.4375 -64.8125 C 53.15625 -63.226562 56.5 -60.953125 59.46875 -57.984375 Z M 55.28125 -52.1875 "/></g></g></g><g fill="#ffffff" fill-opacity="1"><g transform="translate(92.503735, 142.897864)"><g><path d="M 12.515625 0 L 12.515625 -54.1875 L 6.765625 -55.078125 C 5.523438 -55.335938 4.523438 -55.78125 3.765625 -56.40625 C 3.015625 -57.03125 2.640625 -57.921875 2.640625 -59.078125 L 2.640625 -65.59375 L 12.515625 -65.59375 L 12.515625 -70.5 C 12.515625 -74.28125 13.082031 -77.675781 14.21875 -80.6875 C 15.363281 -83.695312 17 -86.253906 19.125 -88.359375 C 21.25 -90.472656 23.835938 -92.085938 26.890625 -93.203125 C 29.941406 -94.316406 33.382812 -94.875 37.21875 -94.875 C 40.269531 -94.875 43.109375 -94.46875 45.734375 -93.65625 L 45.40625 -85.65625 C 45.363281 -85.050781 45.191406 -84.566406 44.890625 -84.203125 C 44.585938 -83.835938 44.1875 -83.554688 43.6875 -83.359375 C 43.195312 -83.171875 42.628906 -83.039062 41.984375 -82.96875 C 41.335938 -82.90625 40.648438 -82.875 39.921875 -82.875 C 38.035156 -82.875 36.347656 -82.671875 34.859375 -82.265625 C 33.378906 -81.859375 32.125 -81.148438 31.09375 -80.140625 C 30.0625 -79.128906 29.273438 -77.796875 28.734375 -76.140625 C 28.191406 -74.484375 27.921875 -72.429688 27.921875 -69.984375 L 27.921875 -65.59375 L 45.15625 -65.59375 L 45.15625 -54.25 L 28.4375 -54.25 L 28.4375 0 Z M 12.515625 0 "/></g></g></g></svg>