<svg xmlns="http://www.w3.org/2000/svg" xmlns:xlink="http://www.w3.org/1999/xlink" width="1000" zoomAndPan="magnify" viewBox="0 0 750 187.499995" height="250" preserveAspectRatio="xMidYMid meet" version="1.0"><defs><g/><clipPath id="24549e572f"><path d="M 0.996094 15.132812 L 154.167969 15.132812 L 154.167969 168.300781 L 0.996094 168.300781 Z M 0.996094 15.132812 " clip-rule="nonzero"/></clipPath><clipPath id="7bb3a3d9d0"><path d="M 23.4375 15.132812 L 131.726562 15.132812 C 137.679688 15.132812 143.386719 17.496094 147.59375 21.703125 C 151.800781 25.914062 154.167969 31.621094 154.167969 37.570312 L 154.167969 145.859375 C 154.167969 151.8125 151.800781 157.519531 147.59375 161.730469 C 143.386719 165.9375 137.679688 168.300781 131.726562 168.300781 L 23.4375 168.300781 C 17.484375 168.300781 11.777344 165.9375 7.570312 161.730469 C 3.363281 157.519531 0.996094 151.8125 0.996094 145.859375 L 0.996094 37.570312 C 0.996094 31.621094 3.363281 25.914062 7.570312 21.703125 C 11.777344 17.496094 17.484375 15.132812 23.4375 15.132812 Z M 23.4375 15.132812 " clip-rule="nonzero"/></clipPath></defs><g fill="#000000" fill-opacity="1"><g transform="translate(194.46087, 136.945686)"><g><path d="M 56.265625 -55.390625 C 55.910156 -54.898438 55.550781 -54.519531 55.1875 -54.25 C 54.832031 -53.988281 54.347656 -53.859375 53.734375 -53.859375 C 53.066406 -53.859375 52.332031 -54.132812 51.53125 -54.6875 C 50.738281 -55.25 49.753906 -55.859375 48.578125 -56.515625 C 47.398438 -57.179688 45.957031 -57.789062 44.25 -58.34375 C 42.550781 -58.90625 40.457031 -59.1875 37.96875 -59.1875 C 34.644531 -59.1875 31.71875 -58.597656 29.1875 -57.421875 C 26.664062 -56.242188 24.550781 -54.546875 22.84375 -52.328125 C 21.132812 -50.117188 19.847656 -47.4375 18.984375 -44.28125 C 18.117188 -41.132812 17.6875 -37.613281 17.6875 -33.71875 C 17.6875 -29.632812 18.148438 -26.007812 19.078125 -22.84375 C 20.015625 -19.675781 21.335938 -17.015625 23.046875 -14.859375 C 24.753906 -12.710938 26.8125 -11.070312 29.21875 -9.9375 C 31.632812 -8.8125 34.351562 -8.25 37.375 -8.25 C 40.257812 -8.25 42.628906 -8.59375 44.484375 -9.28125 C 46.347656 -9.96875 47.890625 -10.726562 49.109375 -11.5625 C 50.328125 -12.40625 51.347656 -13.171875 52.171875 -13.859375 C 52.992188 -14.546875 53.800781 -14.890625 54.59375 -14.890625 C 55.570312 -14.890625 56.328125 -14.515625 56.859375 -13.765625 L 60.1875 -9.4375 C 58.71875 -7.625 57.050781 -6.070312 55.1875 -4.78125 C 53.332031 -3.5 51.328125 -2.425781 49.171875 -1.5625 C 47.023438 -0.695312 44.773438 -0.0664062 42.421875 0.328125 C 40.078125 0.734375 37.6875 0.9375 35.25 0.9375 C 31.03125 0.9375 27.113281 0.160156 23.5 -1.390625 C 19.894531 -2.941406 16.757812 -5.191406 14.09375 -8.140625 C 11.4375 -11.085938 9.351562 -14.710938 7.84375 -19.015625 C 6.34375 -23.316406 5.59375 -28.21875 5.59375 -33.71875 C 5.59375 -38.726562 6.289062 -43.359375 7.6875 -47.609375 C 9.082031 -51.867188 11.117188 -55.535156 13.796875 -58.609375 C 16.484375 -61.691406 19.785156 -64.097656 23.703125 -65.828125 C 27.628906 -67.554688 32.140625 -68.421875 37.234375 -68.421875 C 41.984375 -68.421875 46.160156 -67.65625 49.765625 -66.125 C 53.378906 -64.601562 56.585938 -62.445312 59.390625 -59.65625 Z M 56.265625 -55.390625 "/></g></g></g><g fill="#000000" fill-opacity="1"><g transform="translate(257.965717, 136.945686)"><g><path d="M 37.765625 -68.421875 C 42.691406 -68.421875 47.125 -67.597656 51.0625 -65.953125 C 55.007812 -64.316406 58.378906 -61.992188 61.171875 -58.984375 C 63.972656 -55.972656 66.113281 -52.328125 67.59375 -48.046875 C 69.082031 -43.765625 69.828125 -38.988281 69.828125 -33.71875 C 69.828125 -28.394531 69.082031 -23.601562 67.59375 -19.34375 C 66.113281 -15.09375 63.972656 -11.457031 61.171875 -8.4375 C 58.378906 -5.425781 55.007812 -3.109375 51.0625 -1.484375 C 47.125 0.128906 42.691406 0.9375 37.765625 0.9375 C 32.804688 0.9375 28.34375 0.128906 24.375 -1.484375 C 20.40625 -3.109375 17.023438 -5.425781 14.234375 -8.4375 C 11.441406 -11.457031 9.300781 -15.09375 7.8125 -19.34375 C 6.332031 -23.601562 5.59375 -28.394531 5.59375 -33.71875 C 5.59375 -38.988281 6.332031 -43.765625 7.8125 -48.046875 C 9.300781 -52.328125 11.441406 -55.972656 14.234375 -58.984375 C 17.023438 -61.992188 20.40625 -64.316406 24.375 -65.953125 C 28.34375 -67.597656 32.804688 -68.421875 37.765625 -68.421875 Z M 37.765625 -8.3125 C 44.421875 -8.3125 49.390625 -10.535156 52.671875 -14.984375 C 55.953125 -19.441406 57.59375 -25.664062 57.59375 -33.65625 C 57.59375 -41.675781 55.953125 -47.925781 52.671875 -52.40625 C 49.390625 -56.882812 44.421875 -59.125 37.765625 -59.125 C 34.398438 -59.125 31.460938 -58.546875 28.953125 -57.390625 C 26.453125 -56.234375 24.367188 -54.566406 22.703125 -52.390625 C 21.046875 -50.222656 19.804688 -47.554688 18.984375 -44.390625 C 18.160156 -41.222656 17.75 -37.644531 17.75 -33.65625 C 17.75 -25.664062 19.398438 -19.441406 22.703125 -14.984375 C 26.003906 -10.535156 31.023438 -8.3125 37.765625 -8.3125 Z M 37.765625 -8.3125 "/></g></g></g><g fill="#000000" fill-opacity="1"><g transform="translate(333.373566, 136.945686)"><g><path d="M 53.265625 -51.34375 C 51.046875 -54.3125 48.648438 -56.378906 46.078125 -57.546875 C 43.515625 -58.722656 40.632812 -59.3125 37.4375 -59.3125 C 31.1875 -59.3125 26.375 -57.070312 23 -52.59375 C 19.632812 -48.125 17.953125 -41.742188 17.953125 -33.453125 C 17.953125 -29.054688 18.328125 -25.296875 19.078125 -22.171875 C 19.835938 -19.046875 20.945312 -16.472656 22.40625 -14.453125 C 23.875 -12.441406 25.671875 -10.96875 27.796875 -10.03125 C 29.921875 -9.101562 32.335938 -8.640625 35.046875 -8.640625 C 38.941406 -8.640625 42.34375 -9.523438 45.25 -11.296875 C 48.15625 -13.078125 50.828125 -15.582031 53.265625 -18.8125 Z M 65.109375 -97.953125 L 65.109375 0 L 58.046875 0 C 56.367188 0 55.304688 -0.816406 54.859375 -2.453125 L 53.796875 -10.640625 C 50.910156 -7.179688 47.628906 -4.382812 43.953125 -2.25 C 40.273438 -0.125 36.019531 0.9375 31.1875 0.9375 C 27.332031 0.9375 23.828125 0.191406 20.671875 -1.296875 C 17.523438 -2.785156 14.84375 -4.96875 12.625 -7.84375 C 10.414062 -10.726562 8.710938 -14.320312 7.515625 -18.625 C 6.316406 -22.925781 5.71875 -27.867188 5.71875 -33.453125 C 5.71875 -38.410156 6.378906 -43.03125 7.703125 -47.3125 C 9.035156 -51.59375 10.941406 -55.304688 13.421875 -58.453125 C 15.910156 -61.597656 18.960938 -64.066406 22.578125 -65.859375 C 26.191406 -67.660156 30.257812 -68.5625 34.78125 -68.5625 C 38.90625 -68.5625 42.441406 -67.863281 45.390625 -66.46875 C 48.335938 -65.070312 50.960938 -63.128906 53.265625 -60.640625 L 53.265625 -97.953125 Z M 65.109375 -97.953125 "/></g></g></g><g fill="#000000" fill-opacity="1"><g transform="translate(407.850444, 136.945686)"><g><path d="M 54.46875 -41.03125 C 54.46875 -43.78125 54.078125 -46.296875 53.296875 -48.578125 C 52.523438 -50.859375 51.394531 -52.828125 49.90625 -54.484375 C 48.425781 -56.148438 46.617188 -57.4375 44.484375 -58.34375 C 42.359375 -59.257812 39.941406 -59.71875 37.234375 -59.71875 C 31.566406 -59.71875 27.078125 -58.066406 23.765625 -54.765625 C 20.460938 -51.460938 18.414062 -46.882812 17.625 -41.03125 Z M 64.046875 -9.4375 C 62.578125 -7.664062 60.820312 -6.125 58.78125 -4.8125 C 56.75 -3.507812 54.566406 -2.4375 52.234375 -1.59375 C 49.910156 -0.75 47.503906 -0.117188 45.015625 0.296875 C 42.535156 0.722656 40.078125 0.9375 37.640625 0.9375 C 32.984375 0.9375 28.691406 0.148438 24.765625 -1.421875 C 20.847656 -3.003906 17.457031 -5.3125 14.59375 -8.34375 C 11.738281 -11.382812 9.507812 -15.140625 7.90625 -19.609375 C 6.3125 -24.085938 5.515625 -29.234375 5.515625 -35.046875 C 5.515625 -39.742188 6.234375 -44.128906 7.671875 -48.203125 C 9.117188 -52.285156 11.191406 -55.820312 13.890625 -58.8125 C 16.597656 -61.8125 19.898438 -64.160156 23.796875 -65.859375 C 27.703125 -67.566406 32.09375 -68.421875 36.96875 -68.421875 C 41.007812 -68.421875 44.742188 -67.742188 48.171875 -66.390625 C 51.609375 -65.046875 54.578125 -63.097656 57.078125 -60.546875 C 59.585938 -57.992188 61.550781 -54.84375 62.96875 -51.09375 C 64.394531 -47.351562 65.109375 -43.085938 65.109375 -38.296875 C 65.109375 -36.441406 64.90625 -35.203125 64.5 -34.578125 C 64.101562 -33.960938 63.351562 -33.65625 62.25 -33.65625 L 17.21875 -33.65625 C 17.351562 -29.394531 17.941406 -25.691406 18.984375 -22.546875 C 20.023438 -19.398438 21.476562 -16.769531 23.34375 -14.65625 C 25.207031 -12.550781 27.421875 -10.976562 29.984375 -9.9375 C 32.554688 -8.894531 35.441406 -8.375 38.640625 -8.375 C 41.609375 -8.375 44.164062 -8.71875 46.3125 -9.40625 C 48.46875 -10.09375 50.320312 -10.832031 51.875 -11.625 C 53.425781 -12.425781 54.722656 -13.171875 55.765625 -13.859375 C 56.804688 -14.546875 57.703125 -14.890625 58.453125 -14.890625 C 59.429688 -14.890625 60.1875 -14.515625 60.71875 -13.765625 Z M 64.046875 -9.4375 "/></g></g></g><g fill="#5271ff" fill-opacity="1"><g transform="translate(478.075907, 136.945686)"><g><path d="M 13.765625 0 L 13.765625 -57.25 L 6.3125 -58.125 C 5.382812 -58.34375 4.617188 -58.679688 4.015625 -59.140625 C 3.421875 -59.609375 3.125 -60.289062 3.125 -61.1875 L 3.125 -66.03125 L 13.765625 -66.03125 L 13.765625 -72.546875 C 13.765625 -76.410156 14.304688 -79.835938 15.390625 -82.828125 C 16.484375 -85.816406 18.035156 -88.34375 20.046875 -90.40625 C 22.066406 -92.46875 24.492188 -94.03125 27.328125 -95.09375 C 30.171875 -96.15625 33.363281 -96.6875 36.90625 -96.6875 C 39.914062 -96.6875 42.6875 -96.242188 45.21875 -95.359375 L 44.953125 -89.4375 C 44.867188 -88.375 44.28125 -87.796875 43.1875 -87.703125 C 42.101562 -87.617188 40.65625 -87.578125 38.84375 -87.578125 C 36.800781 -87.578125 34.945312 -87.3125 33.28125 -86.78125 C 31.625 -86.25 30.195312 -85.382812 29 -84.1875 C 27.800781 -82.988281 26.878906 -81.414062 26.234375 -79.46875 C 25.585938 -77.519531 25.265625 -75.101562 25.265625 -72.21875 L 25.265625 -66.03125 L 44.6875 -66.03125 L 44.6875 -57.453125 L 25.671875 -57.453125 L 25.671875 0 Z M 13.765625 0 "/></g></g></g><g fill="#5271ff" fill-opacity="1"><g transform="translate(524.690463, 136.945686)"><g><path d="M 37.765625 -68.421875 C 42.691406 -68.421875 47.125 -67.597656 51.0625 -65.953125 C 55.007812 -64.316406 58.378906 -61.992188 61.171875 -58.984375 C 63.972656 -55.972656 66.113281 -52.328125 67.59375 -48.046875 C 69.082031 -43.765625 69.828125 -38.988281 69.828125 -33.71875 C 69.828125 -28.394531 69.082031 -23.601562 67.59375 -19.34375 C 66.113281 -15.09375 63.972656 -11.457031 61.171875 -8.4375 C 58.378906 -5.425781 55.007812 -3.109375 51.0625 -1.484375 C 47.125 0.128906 42.691406 0.9375 37.765625 0.9375 C 32.804688 0.9375 28.34375 0.128906 24.375 -1.484375 C 20.40625 -3.109375 17.023438 -5.425781 14.234375 -8.4375 C 11.441406 -11.457031 9.300781 -15.09375 7.8125 -19.34375 C 6.332031 -23.601562 5.59375 -28.394531 5.59375 -33.71875 C 5.59375 -38.988281 6.332031 -43.765625 7.8125 -48.046875 C 9.300781 -52.328125 11.441406 -55.972656 14.234375 -58.984375 C 17.023438 -61.992188 20.40625 -64.316406 24.375 -65.953125 C 28.34375 -67.597656 32.804688 -68.421875 37.765625 -68.421875 Z M 37.765625 -8.3125 C 44.421875 -8.3125 49.390625 -10.535156 52.671875 -14.984375 C 55.953125 -19.441406 57.59375 -25.664062 57.59375 -33.65625 C 57.59375 -41.675781 55.953125 -47.925781 52.671875 -52.40625 C 49.390625 -56.882812 44.421875 -59.125 37.765625 -59.125 C 34.398438 -59.125 31.460938 -58.546875 28.953125 -57.390625 C 26.453125 -56.234375 24.367188 -54.566406 22.703125 -52.390625 C 21.046875 -50.222656 19.804688 -47.554688 18.984375 -44.390625 C 18.160156 -41.222656 17.75 -37.644531 17.75 -33.65625 C 17.75 -25.664062 19.398438 -19.441406 22.703125 -14.984375 C 26.003906 -10.535156 31.023438 -8.3125 37.765625 -8.3125 Z M 37.765625 -8.3125 "/></g></g></g><g fill="#5271ff" fill-opacity="1"><g transform="translate(600.098312, 136.945686)"><g><path d="M 21.609375 -97.953125 L 21.609375 0 L 9.78125 0 L 9.78125 -97.953125 Z M 21.609375 -97.953125 "/></g></g></g><g fill="#5271ff" fill-opacity="1"><g transform="translate(631.485001, 136.945686)"><g><path d="M 21.875 -67.359375 L 21.875 0 L 10.046875 0 L 10.046875 -67.359375 Z M 24.40625 -88.515625 C 24.40625 -87.359375 24.171875 -86.28125 23.703125 -85.28125 C 23.242188 -84.289062 22.625 -83.40625 21.84375 -82.625 C 21.070312 -81.851562 20.164062 -81.242188 19.125 -80.796875 C 18.082031 -80.347656 16.984375 -80.125 15.828125 -80.125 C 14.671875 -80.125 13.59375 -80.347656 12.59375 -80.796875 C 11.601562 -81.242188 10.726562 -81.851562 9.96875 -82.625 C 9.21875 -83.40625 8.617188 -84.289062 8.171875 -85.28125 C 7.734375 -86.28125 7.515625 -87.359375 7.515625 -88.515625 C 7.515625 -89.660156 7.734375 -90.753906 8.171875 -91.796875 C 8.617188 -92.835938 9.21875 -93.742188 9.96875 -94.515625 C 10.726562 -95.296875 11.601562 -95.90625 12.59375 -96.34375 C 13.59375 -96.789062 14.671875 -97.015625 15.828125 -97.015625 C 16.984375 -97.015625 18.082031 -96.789062 19.125 -96.34375 C 20.164062 -95.90625 21.070312 -95.296875 21.84375 -94.515625 C 22.625 -93.742188 23.242188 -92.835938 23.703125 -91.796875 C 24.171875 -90.753906 24.40625 -89.660156 24.40625 -88.515625 Z M 24.40625 -88.515625 "/></g></g></g><g fill="#5271ff" fill-opacity="1"><g transform="translate(663.403668, 136.945686)"><g><path d="M 37.765625 -68.421875 C 42.691406 -68.421875 47.125 -67.597656 51.0625 -65.953125 C 55.007812 -64.316406 58.378906 -61.992188 61.171875 -58.984375 C 63.972656 -55.972656 66.113281 -52.328125 67.59375 -48.046875 C 69.082031 -43.765625 69.828125 -38.988281 69.828125 -33.71875 C 69.828125 -28.394531 69.082031 -23.601562 67.59375 -19.34375 C 66.113281 -15.09375 63.972656 -11.457031 61.171875 -8.4375 C 58.378906 -5.425781 55.007812 -3.109375 51.0625 -1.484375 C 47.125 0.128906 42.691406 0.9375 37.765625 0.9375 C 32.804688 0.9375 28.34375 0.128906 24.375 -1.484375 C 20.40625 -3.109375 17.023438 -5.425781 14.234375 -8.4375 C 11.441406 -11.457031 9.300781 -15.09375 7.8125 -19.34375 C 6.332031 -23.601562 5.59375 -28.394531 5.59375 -33.71875 C 5.59375 -38.988281 6.332031 -43.765625 7.8125 -48.046875 C 9.300781 -52.328125 11.441406 -55.972656 14.234375 -58.984375 C 17.023438 -61.992188 20.40625 -64.316406 24.375 -65.953125 C 28.34375 -67.597656 32.804688 -68.421875 37.765625 -68.421875 Z M 37.765625 -8.3125 C 44.421875 -8.3125 49.390625 -10.535156 52.671875 -14.984375 C 55.953125 -19.441406 57.59375 -25.664062 57.59375 -33.65625 C 57.59375 -41.675781 55.953125 -47.925781 52.671875 -52.40625 C 49.390625 -56.882812 44.421875 -59.125 37.765625 -59.125 C 34.398438 -59.125 31.460938 -58.546875 28.953125 -57.390625 C 26.453125 -56.234375 24.367188 -54.566406 22.703125 -52.390625 C 21.046875 -50.222656 19.804688 -47.554688 18.984375 -44.390625 C 18.160156 -41.222656 17.75 -37.644531 17.75 -33.65625 C 17.75 -25.664062 19.398438 -19.441406 22.703125 -14.984375 C 26.003906 -10.535156 31.023438 -8.3125 37.765625 -8.3125 Z M 37.765625 -8.3125 "/></g></g></g><g clip-path="url(#24549e572f)"><g clip-path="url(#7bb3a3d9d0)"><path fill="#5271ff" d="M 0.996094 15.132812 L 154.167969 15.132812 L 154.167969 168.300781 L 0.996094 168.300781 Z M 0.996094 15.132812 " fill-opacity="1" fill-rule="nonzero"/></g></g><g fill="#ffffff" fill-opacity="1"><g transform="translate(21.025158, 140.612335)"><g><path d="M 55.28125 -52.1875 C 54.800781 -51.582031 54.335938 -51.109375 53.890625 -50.765625 C 53.441406 -50.421875 52.785156 -50.25 51.921875 -50.25 C 51.109375 -50.25 50.3125 -50.492188 49.53125 -50.984375 C 48.757812 -51.484375 47.835938 -52.039062 46.765625 -52.65625 C 45.691406 -53.28125 44.410156 -53.835938 42.921875 -54.328125 C 41.441406 -54.828125 39.601562 -55.078125 37.40625 -55.078125 C 34.613281 -55.078125 32.160156 -54.570312 30.046875 -53.5625 C 27.941406 -52.550781 26.191406 -51.097656 24.796875 -49.203125 C 23.398438 -47.316406 22.359375 -45.03125 21.671875 -42.34375 C 20.984375 -39.65625 20.640625 -36.613281 20.640625 -33.21875 C 20.640625 -29.6875 21.015625 -26.546875 21.765625 -23.796875 C 22.515625 -21.046875 23.597656 -18.734375 25.015625 -16.859375 C 26.441406 -14.992188 28.164062 -13.578125 30.1875 -12.609375 C 32.207031 -11.640625 34.484375 -11.15625 37.015625 -11.15625 C 39.554688 -11.15625 41.609375 -11.46875 43.171875 -12.09375 C 44.742188 -12.71875 46.066406 -13.40625 47.140625 -14.15625 C 48.222656 -14.90625 49.160156 -15.59375 49.953125 -16.21875 C 50.753906 -16.84375 51.644531 -17.15625 52.625 -17.15625 C 53.914062 -17.15625 54.882812 -16.660156 55.53125 -15.671875 L 60.109375 -9.875 C 58.347656 -7.800781 56.4375 -6.066406 54.375 -4.671875 C 52.3125 -3.273438 50.171875 -2.15625 47.953125 -1.3125 C 45.742188 -0.476562 43.46875 0.109375 41.125 0.453125 C 38.78125 0.796875 36.445312 0.96875 34.125 0.96875 C 30.039062 0.96875 26.191406 0.207031 22.578125 -1.3125 C 18.960938 -2.84375 15.800781 -5.070312 13.09375 -8 C 10.382812 -10.925781 8.242188 -14.503906 6.671875 -18.734375 C 5.109375 -22.972656 4.328125 -27.800781 4.328125 -33.21875 C 4.328125 -38.070312 5.023438 -42.570312 6.421875 -46.71875 C 7.816406 -50.875 9.867188 -54.46875 12.578125 -57.5 C 15.285156 -60.53125 18.640625 -62.90625 22.640625 -64.625 C 26.640625 -66.34375 31.238281 -67.203125 36.4375 -67.203125 C 41.382812 -67.203125 45.71875 -66.40625 49.4375 -64.8125 C 53.15625 -63.226562 56.5 -60.953125 59.46875 -57.984375 Z M 55.28125 -52.1875 "/></g></g></g><g fill="#ffffff" fill-opacity="1"><g transform="translate(79.460633, 140.612335)"><g><path d="M 12.515625 0 L 12.515625 -54.1875 L 6.765625 -55.078125 C 5.523438 -55.335938 4.523438 -55.78125 3.765625 -56.40625 C 3.015625 -57.03125 2.640625 -57.921875 2.640625 -59.078125 L 2.640625 -65.59375 L 12.515625 -65.59375 L 12.515625 -70.5 C 12.515625 -74.28125 13.082031 -77.675781 14.21875 -80.6875 C 15.363281 -83.695312 17 -86.253906 19.125 -88.359375 C 21.25 -90.472656 23.835938 -92.085938 26.890625 -93.203125 C 29.941406 -94.316406 33.382812 -94.875 37.21875 -94.875 C 40.269531 -94.875 43.109375 -94.46875 45.734375 -93.65625 L 45.40625 -85.65625 C 45.363281 -85.050781 45.191406 -84.566406 44.890625 -84.203125 C 44.585938 -83.835938 44.1875 -83.554688 43.6875 -83.359375 C 43.195312 -83.171875 42.628906 -83.039062 41.984375 -82.96875 C 41.335938 -82.90625 40.648438 -82.875 39.921875 -82.875 C 38.035156 -82.875 36.347656 -82.671875 34.859375 -82.265625 C 33.378906 -81.859375 32.125 -81.148438 31.09375 -80.140625 C 30.0625 -79.128906 29.273438 -77.796875 28.734375 -76.140625 C 28.191406 -74.484375 27.921875 -72.429688 27.921875 -69.984375 L 27.921875 -65.59375 L 45.15625 -65.59375 L 45.15625 -54.25 L 28.4375 -54.25 L 28.4375 0 Z M 12.515625 0 "/></g></g></g></svg>